<svg id="Layer_3" data-name="Layer 3" xmlns="http://www.w3.org/2000/svg" viewBox="0 0 490.33 438"><defs><style>.cls-1{fill:#fff;}.cls-2{fill:#ff4500;}.cls-3{fill:#61dafb;}</style></defs><title>logo</title><path class="cls-1" d="M543,244.67a26.78,26.78,0,0,0-45.4-19.28c-18.26-12.06-42.94-19.82-70.29-20.8l14.94-47.23,40.48,9.53c0,0.2,0,.4,0,0.6a21.94,21.94,0,1,0,1.5-8l-43.63-10.27a3.74,3.74,0,0,0-4.44,2.52L419.42,204.5c-28.62.34-54.55,8.1-73.63,20.51A26.79,26.79,0,1,0,314,267.75a48.44,48.44,0,0,0-.78,8.62c0,26.79,22.17,50.2,55,62.57q-0.1.63-.2,1.26c-15.55,7.08-26.62,25-26.62,45.93,0,23.6,14.06,43.36,32.75,48.09A138.34,138.34,0,0,0,379.69,449a35.68,35.68,0,0,0-3.58-.19c-16.37,0-29.68,11.11-29.68,24.77a20.49,20.49,0,0,0,1.11,6.4,3.75,3.75,0,0,0,3.57,2.59h56.54l0.05,0H435l0.05,0h56.85a3.75,3.75,0,0,0,3.57-2.61,20.6,20.6,0,0,0,1.09-6.39c0-13.66-13.32-24.77-29.69-24.77A35.6,35.6,0,0,0,463,449a138.16,138.16,0,0,0,5.57-14.72c18.88-4.56,33.13-24.43,33.13-48.19,0-21.1-11.25-39.14-27-46.1l-0.17-1.09c32.79-12.36,55-35.77,55-62.56a48.41,48.41,0,0,0-.69-8.11A26.82,26.82,0,0,0,543,244.67Zm-82.36,65c-8,8-20.66,11.94-38.59,11.94h-0.27c-17.93,0-30.55-3.91-38.59-11.94a3.75,3.75,0,0,1,5.31-5.31c6.55,6.56,17.44,9.74,33.27,9.74H422c15.83,0,26.72-3.19,33.28-9.74A3.75,3.75,0,1,1,460.59,309.72Z" transform="translate(-175.67 -77)"/><g id="g160"><path class="cls-2" d="M385.13,278.36a16,16,0,1,1,16-15.95A16,16,0,0,1,385.13,278.36Z" transform="translate(-175.67 -77)"/></g><g id="g168"><path class="cls-2" d="M458.69,278.36a16,16,0,1,1,15.95-15.95A16,16,0,0,1,458.69,278.36Z" transform="translate(-175.67 -77)"/></g><path class="cls-3" d="M420.83,195c-135.4,0-245.17,45.37-245.17,101.33S285.43,397.67,420.83,397.67,666,352.3,666,296.33,556.24,195,420.83,195Zm-1,197.33c-127.12,0-230.17-39-230.17-87.17S292.72,218,419.83,218,650,257,650,305.17,547,392.33,419.83,392.33Z" transform="translate(-175.67 -77)"/><path class="cls-3" d="M334.74,347.33C402.44,464.59,496.62,537,545.08,509S578,363.26,510.26,246,348.38,56.36,299.92,84.35,267,230.07,334.74,347.33Zm171.4-97.8c63.56,110.09,81.29,218.84,39.59,242.91s-127-45.66-190.57-155.75S273.88,117.86,315.57,93.79,442.58,139.45,506.14,249.53Z" transform="translate(-175.67 -77)"/><path class="cls-3" d="M508.59,346c67.7-117.26,83.29-235,34.83-263S400.78,127.41,333.08,244.67s-83.29,235-34.83,263S440.89,463.26,508.59,346Zm-170.4-99.53C401.75,136.38,487.08,66.65,528.77,90.72s24,132.83-39.59,242.91S340.29,513.45,298.6,489.38,274.64,356.55,338.19,246.47Z" transform="translate(-175.67 -77)"/></svg>