<svg id="Layer_3" data-name="Layer 3" xmlns="http://www.w3.org/2000/svg" viewBox="0 0 490.33 438"><defs><style>.cls-1{fill:#fff;}.cls-2{fill:#ff4500;}.cls-3{fill:#61dafb;}</style></defs><title>logo</title><path class="cls-1" d="M554.54,218.74a29.27,29.27,0,0,0-49.61-21.07C485,184.5,458,176,428.12,174.94l16.32-51.61,44.23,10.41c0,0.22,0,.44,0,0.66a24,24,0,1,0,1.64-8.7l-47.68-11.22a4.08,4.08,0,0,0-4.85,2.75l-18.22,57.61c-31.27.37-59.61,8.85-80.46,22.41A29.27,29.27,0,1,0,304.35,244a52.93,52.93,0,0,0-.85,9.42c0,29.28,24.23,54.86,60.06,68.37q-0.11.69-.22,1.38c-17,7.74-29.08,27.31-29.08,50.18,0,25.78,15.37,47.38,35.78,52.55A151.16,151.16,0,0,0,376.14,442a39,39,0,0,0-3.91-.2c-17.88,0-32.43,12.14-32.43,27.07a22.39,22.39,0,0,0,1.21,7,4.1,4.1,0,0,0,3.9,2.83h61.78l0.06,0h29.87l0.06,0H498.8a4.1,4.1,0,0,0,3.9-2.85,22.51,22.51,0,0,0,1.19-7c0-14.93-14.55-27.07-32.44-27.07a38.91,38.91,0,0,0-4.24.24A151,151,0,0,0,473.31,426c20.63-5,36.2-26.7,36.2-52.65,0-23.06-12.29-42.77-29.5-50.37l-0.19-1.19c35.83-13.51,60.06-39.09,60.06-68.36a52.9,52.9,0,0,0-.76-8.86A29.31,29.31,0,0,0,554.54,218.74Zm-90,71.08c-8.79,8.78-22.58,13.05-42.16,13.05h-0.29c-19.59,0-33.38-4.27-42.16-13.05a4.1,4.1,0,0,1,5.8-5.8c7.16,7.17,19.06,10.65,36.36,10.65h0.29c17.3,0,29.2-3.48,36.37-10.65A4.1,4.1,0,0,1,464.54,289.82Z" transform="translate(-175.67 -77)"/><g id="g160"><path class="cls-2" d="M382.08,255.54a17.43,17.43,0,1,1,17.43-17.43A17.45,17.45,0,0,1,382.08,255.54Z" transform="translate(-175.67 -77)"/></g><g id="g168"><path class="cls-2" d="M462.46,255.54a17.43,17.43,0,1,1,17.43-17.43A17.45,17.45,0,0,1,462.46,255.54Z" transform="translate(-175.67 -77)"/></g><path class="cls-3" d="M542.05,208.24c-0.24,1.49-.54,3.07-0.88,4.71C607.62,228.24,652,255.91,652,287.5c0,48.14-103,87.17-230.17,87.17s-230.17-39-230.17-87.17c0-31.62,44.46-59.31,111-74.59-0.54-2-1-3.71-1.33-5.07-75,17.33-125.67,50.46-125.67,88.49,0,56,109.76,101.33,245.17,101.33S666,352.3,666,296.33C666,258.59,616.08,225.68,542.05,208.24Z" transform="translate(-175.67 -77)"/><path class="cls-3" d="M543.42,83C504.49,60.54,436.1,102.8,375.6,181c2.6-.73,5.26-1.39,7.95-2,17.35-22.11,35.13-41,52.35-55.89l1.87-5.92a4.08,4.08,0,0,1,4.85-2.75l3,0.69c33-25.89,63.13-36,83.19-24.45,25.67,14.82,28.8,61.75,12.59,121.33-3.38,17-12,42.33-23.15,64.46a590.18,590.18,0,0,1-29,57.13C425.61,443.72,340.29,513.45,298.6,489.38,260.27,467.25,272.17,373.52,323.74,273q-1.44-3.11-2.8-6.26c-57.28,109.62-68.12,214.69-22.7,240.92,48.47,28,142.64-44.39,210.34-161.65S591.88,111,543.42,83Z" transform="translate(-175.67 -77)"/><path class="cls-3" d="M522.33,268q-1.39,3-2.84,6c52.5,101.33,64.85,196.23,26.24,218.52-41.69,24.07-127-45.66-190.57-155.75S273.88,117.86,315.57,93.79c26-15,69.12,6.53,113.27,51.68l1.79-5.65C381,89.77,331,66.39,299.92,84.35c-48.47,28-32.87,145.73,34.83,263S496.62,537,545.08,509C590.52,482.75,579.66,377.62,522.33,268Z" transform="translate(-175.67 -77)"/><path class="cls-3" d="M458,178.65q4.26,0.92,8.38,2c-9.63-12.35-19.45-23.77-29.31-34.18l-1.81,5.73Q446.7,164.46,458,178.65Z" transform="translate(-175.67 -77)"/></svg>